# xmcd
# 
# Track frame offsets:
#     150
#     12409
#     30092
#     40430
#     54602
#     58575
#     73137
#     94512
#     106853
#     117996
#     127258
#     137637
#     146957
#     162940
#     180224
#     187811
#     195756
# 
# Disc length: 2786
# 
# Revision: 15
# Processed by: cddbd v1.5.2PL0 Copyright (c) Steve Scherf et al.
# Submitted via: fre:ac v1.0.27
# 
DISCID=e50ae011
DTITLE=The Beatles - The Beatles
DYEAR=1968
DGENRE=Rock
TTITLE0=Back in the U.S.S.R.
TTITLE1=Dear Prudence
TTITLE2=Glass Onion
TTITLE3=Ob-La-Di, Ob-La-Da
TTITLE4=Wild Honey Pie
TTITLE5=The Continuing Story of Bungalow Bill
TTITLE6=While My Guitar Gently Weeps
TTITLE7=Happiness Is a Warm Gun
TTITLE8=Martha My Dear
TTITLE9=I'm So Tired
TTITLE10=Blackbird
TTITLE11=Piggies
TTITLE12=Rocky Raccoon
TTITLE13=Don't Pass Me By
TTITLE14=Why Don't We Do It in the Road?
TTITLE15=I Will
TTITLE16=Julia
EXTD=YEAR: 1968
EXTT0=
EXTT1=
EXTT2=
EXTT3=
EXTT4=
EXTT5=
EXTT6=
EXTT7=
EXTT8=
EXTT9=
EXTT10=
EXTT11=
EXTT12=
EXTT13=
EXTT14=
EXTT15=
EXTT16=
PLAYORDER=
